# xmcd
#
# Track frame offsets:
#	150
#	17442
#	32095
#	47648
#	65036
#	79190
#	92114
#	108153
#	123813
#	139202
#	153565
#	168933
#	184372
#	201317
#	219681
#	230947
#	247250
#	259165
#	279112
#	291296
#	304690
#	320193
#
# Disc length: 4454 seconds
#
# Revision: 1
# Processed by: cddbd v1.5.2PL0 Copyright (c) Steve Scherf et al.
# Submitted via: audiograbber 1.83.01
#
DISCID=4e116416
DTITLE=Various Artist - Halland's Country Hits Volume 1
DYEAR=1900
DGENRE=
TTITLE0=Alan Jackson - Livin' On Love
TTITLE1=Alan Jackson - Summertime Blues
TTITLE2=Alan Jackson - (Who Says) You Can't Have It All
TTITLE3=Wynonna  - Is It Over Yet
TTITLE4=Wynonna  - Rock Bottom
TTITLE5=Toby Keith - A Little Less Talk..Lot More Action
TTITLE6=Toby Keith - Who's That Man
TTITLE7=Toby Keith - Wish I Didn't Know Now
TTITLE8=Sammy Kershaw - I Can't Reach Her Anymore
TTITLE9=Sammy Kershaw - National Working Woman's Holiday
TTITLE10=Sammy Kershaw - Third Rate Romance
TTITLE11=Hal Ketchum - Tonight We Just Might...Love Again
TTITLE12=Little Texas - Kick A Little
TTITLE13=Little Texas - My Love
TTITLE14=Tracy Lawrence - If The Good Die Young
TTITLE15=Tracy Lawrence - I See It Now
TTITLE16=Tracy Lawrence - Renegades, Rebels And Rogues
TTITLE17=Patty Loveless - How Can I Help You Say Goodbye
TTITLE18=Patty Loveless - I Try To Think About Elvis
TTITLE19=Patty Loveless - You Will
TTITLE20=Martina McBride - Independence Day
TTITLE21=Martina McBride - Life #9
EXTD=
EXTT0=
EXTT1=
EXTT2=
EXTT3=
EXTT4=
EXTT5=
EXTT6=
EXTT7=
EXTT8=
EXTT9=
EXTT10=
EXTT11=
EXTT12=
EXTT13=
EXTT14=
EXTT15=
EXTT16=
EXTT17=
EXTT18=
EXTT19=
EXTT20=
EXTT21=
PLAYORDER=
